REM DIRINDEX 1\3,1\2\4,1\2\5,1\2\6
REM DIRNAME cjc137,folder01,folder02,folder03,folder04,folder05
TITLE ""
FILE "091.mp3" MP3
  TRACK 01 AUDIO
    TITLE "4:cjc137_3741"
    INDEX 01 00:00:00
  TRACK 02 AUDIO
    TITLE "0:"
    INDEX 01 00:01:15
  TRACK 03 AUDIO
    TITLE "6:cjc137_3742"
    INDEX 01 00:01:24
  TRACK 04 AUDIO
    TITLE "0:"
    INDEX 01 00:02:59
  TRACK 05 AUDIO
    TITLE "5:cjc137_3743"
    INDEX 01 00:02:65
  TRACK 06 AUDIO
    TITLE "0:"
    INDEX 01 00:04:07
  TRACK 07 AUDIO
    TITLE "4:cjc137_3744"
    INDEX 01 00:05:14
  TRACK 08 AUDIO
    TITLE "0:"
    INDEX 01 00:06:16
  TRACK 09 AUDIO
    TITLE "6:cjc137_3745"
    INDEX 01 00:06:22
  TRACK 10 AUDIO
    TITLE "0:"
    INDEX 01 00:07:58
  TRACK 11 AUDIO
    TITLE "5:cjc137_3746"
    INDEX 01 00:07:66
  TRACK 12 AUDIO
    TITLE "0:"
    INDEX 01 00:08:64
  TRACK 13 AUDIO
    TITLE "4:cjc137_3747"
    INDEX 01 00:10:00
  TRACK 14 AUDIO
    TITLE "0:"
    INDEX 01 00:11:19
  TRACK 15 AUDIO
    TITLE "6:cjc137_3748"
    INDEX 01 00:11:29
  TRACK 16 AUDIO
    TITLE "0:"
    INDEX 01 00:12:44
  TRACK 17 AUDIO
    TITLE "5:cjc137_3749"
    INDEX 01 00:12:52
  TRACK 18 AUDIO
    TITLE "0:"
    INDEX 01 00:13:71
  TRACK 19 AUDIO
    TITLE "4:cjc137_3750"
    INDEX 01 00:15:07
  TRACK 20 AUDIO
    TITLE "0:"
    INDEX 01 00:16:32
  TRACK 21 AUDIO
    TITLE "6:cjc137_3751"
    INDEX 01 00:16:44
  TRACK 22 AUDIO
    TITLE "0:"
    INDEX 01 00:17:53
  TRACK 23 AUDIO
    TITLE "5:cjc137_3752"
    INDEX 01 00:17:59
  TRACK 24 AUDIO
    TITLE "0:"
    INDEX 01 00:19:05
  TRACK 25 AUDIO
    TITLE "4:cjc137_3753"
    INDEX 01 00:20:20
  TRACK 26 AUDIO
    TITLE "0:"
    INDEX 01 00:21:51
  TRACK 27 AUDIO
    TITLE "6:cjc137_3754"
    INDEX 01 00:21:60
  TRACK 28 AUDIO
    TITLE "0:"
    INDEX 01 00:23:36
  TRACK 29 AUDIO
    TITLE "5:cjc137_3755"
    INDEX 01 00:23:42
  TRACK 30 AUDIO
    TITLE "0:"
    INDEX 01 00:25:01
  TRACK 31 AUDIO
    TITLE "4:cjc137_3756"
    INDEX 01 00:26:11
  TRACK 32 AUDIO
    TITLE "0:"
    INDEX 01 00:27:34
  TRACK 33 AUDIO
    TITLE "6:cjc137_3757"
    INDEX 01 00:27:47
  TRACK 34 AUDIO
    TITLE "0:"
    INDEX 01 00:29:33
  TRACK 35 AUDIO
    TITLE "5:cjc137_3758"
    INDEX 01 00:29:40
  TRACK 36 AUDIO
    TITLE "0:"
    INDEX 01 00:30:65
  TRACK 37 AUDIO
    TITLE "4:cjc137_3759"
    INDEX 01 00:32:01
  TRACK 38 AUDIO
    TITLE "0:"
    INDEX 01 00:32:74
  TRACK 39 AUDIO
    TITLE "6:cjc137_3760"
    INDEX 01 00:33:07
  TRACK 40 AUDIO
    TITLE "0:"
    INDEX 01 00:34:69
  TRACK 41 AUDIO
    TITLE "5:cjc137_3761"
    INDEX 01 00:35:04
  TRACK 42 AUDIO
    TITLE "0:"
    INDEX 01 00:36:03
  TRACK 43 AUDIO
    TITLE "4:cjc137_3762"
    INDEX 01 00:37:08
  TRACK 44 AUDIO
    TITLE "0:"
    INDEX 01 00:38:10
  TRACK 45 AUDIO
    TITLE "6:cjc137_3763"
    INDEX 01 00:38:16
  TRACK 46 AUDIO
    TITLE "0:"
    INDEX 01 00:39:43
  TRACK 47 AUDIO
    TITLE "5:cjc137_3764"
    INDEX 01 00:39:47
  TRACK 48 AUDIO
    TITLE "0:"
    INDEX 01 00:40:46
  TRACK 49 AUDIO
    TITLE "4:cjc137_3765"
    INDEX 01 00:41:53
  TRACK 50 AUDIO
    TITLE "0:"
    INDEX 01 00:42:59
  TRACK 51 AUDIO
    TITLE "6:cjc137_3766"
    INDEX 01 00:42:68
  TRACK 52 AUDIO
    TITLE "0:"
    INDEX 01 00:44:01
  TRACK 53 AUDIO
    TITLE "5:cjc137_3767"
    INDEX 01 00:44:07
  TRACK 54 AUDIO
    TITLE "0:"
    INDEX 01 00:45:16
  TRACK 55 AUDIO
    TITLE "4:cjc137_3768"
    INDEX 01 00:46:25
  TRACK 56 AUDIO
    TITLE "0:"
    INDEX 01 00:47:44
  TRACK 57 AUDIO
    TITLE "6:cjc137_3769"
    INDEX 01 00:47:52
  TRACK 58 AUDIO
    TITLE "0:"
    INDEX 01 00:49:35
  TRACK 59 AUDIO
    TITLE "5:cjc137_3770"
    INDEX 01 00:49:41
  TRACK 60 AUDIO
    TITLE "0:"
    INDEX 01 00:50:60
  TRACK 61 AUDIO
    TITLE "4:cjc137_3771"
    INDEX 01 00:51:67
  TRACK 62 AUDIO
    TITLE "0:"
    INDEX 01 00:53:23
  TRACK 63 AUDIO
    TITLE "6:cjc137_3772"
    INDEX 01 00:53:29
  TRACK 64 AUDIO
    TITLE "0:"
    INDEX 01 00:55:04
  TRACK 65 AUDIO
    TITLE "5:cjc137_3773"
    INDEX 01 00:55:10
  TRACK 66 AUDIO
    TITLE "0:"
    INDEX 01 00:56:41
  TRACK 67 AUDIO
    TITLE "4:cjc137_3774"
    INDEX 01 00:57:54
  TRACK 68 AUDIO
    TITLE "0:"
    INDEX 01 00:59:10
  TRACK 69 AUDIO
    TITLE "6:cjc137_3775"
    INDEX 01 00:59:14
  TRACK 70 AUDIO
    TITLE "0:"
    INDEX 01 01:00:33
  TRACK 71 AUDIO
    TITLE "5:cjc137_3776"
    INDEX 01 01:00:43
  TRACK 72 AUDIO
    TITLE "0:"
    INDEX 01 01:01:72
  TRACK 73 AUDIO
    TITLE "4:cjc137_3777"
    INDEX 01 01:03:08
  TRACK 74 AUDIO
    TITLE "0:"
    INDEX 01 01:04:33
  TRACK 75 AUDIO
    TITLE "6:cjc137_3778"
    INDEX 01 01:04:43
  TRACK 76 AUDIO
    TITLE "0:"
    INDEX 01 01:05:66
  TRACK 77 AUDIO
    TITLE "5:cjc137_3779"
    INDEX 01 01:05:73
  TRACK 78 AUDIO
    TITLE "0:"
    INDEX 01 01:07:27
  TRACK 79 AUDIO
    TITLE "4:cjc137_3780"
    INDEX 01 01:08:35
  TRACK 80 AUDIO
    TITLE "0:"
    INDEX 01 01:09:38
  TRACK 81 AUDIO
    TITLE "6:cjc137_3781"
    INDEX 01 01:09:46
  TRACK 82 AUDIO
    TITLE "0:"
    INDEX 01 01:10:63
  TRACK 83 AUDIO
    TITLE "5:cjc137_3782"
    INDEX 01 01:10:71
  TRACK 84 AUDIO
    TITLE "0:"
    INDEX 01 01:11:74
